<?xml version="1.0" encoding="UTF-8" standalone="no"?>
<svg
   version="1.1"
   width="256"
   height="256"
   id="svg3"
   sodipodi:docname="skf_icon.svg"
   inkscape:version="1.3.2 (091e20e, 2023-11-25)"
   xmlns:inkscape="http://www.inkscape.org/namespaces/inkscape"
   xmlns:sodipodi="http://sodipodi.sourceforge.net/DTD/sodipodi-0.dtd"
   xmlns:xlink="http://www.w3.org/1999/xlink"
   xmlns="http://www.w3.org/2000/svg"
   xmlns:svg="http://www.w3.org/2000/svg">
  <defs
     id="defs3">
    <linearGradient
       id="linearGradient28"
       inkscape:collect="always">
      <stop
         style="stop-color:#7248b1;stop-opacity:1;"
         offset="0"
         id="stop28" />
      <stop
         style="stop-color:#440077;stop-opacity:1;"
         offset="1"
         id="stop29" />
    </linearGradient>
    <linearGradient
       id="linearGradient24"
       inkscape:collect="always">
      <stop
         style="stop-color:#fefefe;stop-opacity:1;"
         offset="0"
         id="stop24" />
      <stop
         style="stop-color:#505050;stop-opacity:1;"
         offset="1"
         id="stop25" />
    </linearGradient>
    <linearGradient
       id="linearGradient18"
       inkscape:collect="always">
      <stop
         style="stop-color:#fdfdfd;stop-opacity:1;"
         offset="0"
         id="stop18" />
      <stop
         style="stop-color:#505050;stop-opacity:1;"
         offset="1"
         id="stop19" />
    </linearGradient>
    <filter
       id="mask-powermask-path-effect13_inverse"
       inkscape:label="filtermask-powermask-path-effect13"
       style="color-interpolation-filters:sRGB"
       height="100"
       width="100"
       x="-50"
       y="-50">
      <feColorMatrix
         id="mask-powermask-path-effect13_primitive1"
         values="1"
         type="saturate"
         result="fbSourceGraphic" />
      <feColorMatrix
         id="mask-powermask-path-effect13_primitive2"
         values="-1 0 0 0 1 0 -1 0 0 1 0 0 -1 0 1 0 0 0 1 0 "
         in="fbSourceGraphic" />
    </filter>
    <filter
       id="mask-powermask-path-effect14_inverse"
       inkscape:label="filtermask-powermask-path-effect14"
       style="color-interpolation-filters:sRGB"
       height="100"
       width="100"
       x="-50"
       y="-50">
      <feColorMatrix
         id="mask-powermask-path-effect14_primitive1"
         values="1"
         type="saturate"
         result="fbSourceGraphic" />
      <feColorMatrix
         id="mask-powermask-path-effect14_primitive2"
         values="-1 0 0 0 1 0 -1 0 0 1 0 0 -1 0 1 0 0 0 1 0 "
         in="fbSourceGraphic" />
    </filter>
    <linearGradient
       inkscape:collect="always"
       xlink:href="#linearGradient18"
       id="linearGradient19"
       x1="-139.76106"
       y1="-107.32369"
       x2="-155.1456"
       y2="-129.9093"
       gradientUnits="userSpaceOnUse" />
    <linearGradient
       inkscape:collect="always"
       xlink:href="#linearGradient24"
       id="linearGradient25"
       x1="-138.21968"
       y1="-105.33296"
       x2="-154.15695"
       y2="-127.53385"
       gradientUnits="userSpaceOnUse" />
    <linearGradient
       inkscape:collect="always"
       xlink:href="#linearGradient28"
       id="linearGradient29"
       x1="124.8366"
       y1="132.35294"
       x2="124.8366"
       y2="165.68628"
       gradientUnits="userSpaceOnUse" />
  </defs>
  <sodipodi:namedview
     id="namedview3"
     pagecolor="#ffffff"
     bordercolor="#000000"
     borderopacity="0.25"
     inkscape:showpageshadow="2"
     inkscape:pageopacity="0.0"
     inkscape:pagecheckerboard="0"
     inkscape:deskcolor="#d1d1d1"
     inkscape:zoom="3.06"
     inkscape:cx="128.59477"
     inkscape:cy="125.1634"
     inkscape:window-width="1440"
     inkscape:window-height="847"
     inkscape:window-x="0"
     inkscape:window-y="25"
     inkscape:window-maximized="1"
     inkscape:current-layer="layer5" />
  <g
     inkscape:groupmode="layer"
     id="layer4"
     inkscape:label="Layer 1">
    <rect
       style="fill:#000000"
       id="rect3"
       width="366.64407"
       height="347.11865"
       x="-40.135593"
       y="-42.305084" />
  </g>
  <g
     inkscape:groupmode="layer"
     id="layer5"
     inkscape:label="Layer 2">
    <path
       id="path6"
       style="fill:#ffffff;fill-opacity:1;stroke-width:0.4657"
       d="M -29.108358 72.277609 A 27.022591 47.538815 0 0 0 -45.559801 62.45307 A 27.022591 47.538815 0 0 0 -72.582501 109.9934 A 27.022591 47.538815 0 0 0 -54.823893 154.64201 A 45.284973 39.450262 48.716008 0 1 -45.568241 143.75961 A 45.284973 39.450262 48.716008 0 1 -23.2134 136.5427 A 27.022591 47.538815 0 0 0 -18.538227 109.99255 A 27.022591 47.538815 0 0 0 -29.108358 72.277609 z "
       transform="matrix(0.58485519,-0.81113772,0.76969337,0.63841375,0,0)" />
    <path
       id="path6-1"
       style="fill:url(#linearGradient25);fill-opacity:1;stroke-width:0.459173"
       d="M -127.84094 -47.054688 A 26.715506 46.746895 0 0 0 -111.34907 -90.243685 A 26.715506 46.746895 0 0 0 -138.0635 -136.98939 A 26.715506 46.746895 0 0 0 -164.77897 -90.24284 A 26.715506 46.746895 0 0 0 -163.39306 -75.684647 A 42.889424 41.70374 17.633953 0 1 -145.99183 -61.834084 A 42.889424 41.70374 17.633953 0 1 -138.39719 -43.533404 A 26.715506 46.746895 0 0 0 -138.06333 -43.495494 A 26.715506 46.746895 0 0 0 -127.84094 -47.054688 z "
       transform="matrix(-0.83632997,-0.5482264,0.61612208,-0.78765068,0,0)" />
  </g>
  <g
     inkscape:groupmode="layer"
     id="layer5-9"
     inkscape:label="Layer 2"
     transform="matrix(-1,0,0,1,256.70593,-0.66477593)">
    <path
       id="path6-16"
       style="fill:#ffffff;fill-opacity:1;stroke-width:0.4657"
       inkscape:label="path2"
       d="M -29.109613 72.277131 A 27.022591 47.538815 0 0 1 -18.536726 109.99252 A 27.022591 47.538815 0 0 1 -23.718847 137.87183 A 45.284973 39.450262 48.716008 0 0 -45.309439 145.12973 A 45.284973 39.450262 48.716008 0 0 -54.014591 155.0381 A 27.022591 47.538815 0 0 1 -72.58225 109.99178 A 27.022591 47.538815 0 0 1 -45.559806 62.454181 A 27.022591 47.538815 0 0 1 -29.109613 72.277131 z "
       transform="matrix(0.58485519,-0.81113772,0.76969337,0.63841375,0,0)" />
    <path
       id="path6-1-3"
       style="fill:url(#linearGradient19);fill-opacity:1;stroke-width:0.459173"
       inkscape:label="path1"
       d="M -127.84085 -47.053179 A 26.715506 46.746895 0 0 1 -138.06445 -43.495624 A 26.715506 46.746895 0 0 1 -139.4525 -43.65528 A 42.889424 41.70374 17.633953 0 0 -147.12137 -61.891889 A 42.889424 41.70374 17.633953 0 0 -163.28941 -75.152654 A 26.715506 46.746895 0 0 1 -164.78008 -90.24297 A 26.715506 46.746895 0 0 1 -138.06461 -136.98952 A 26.715506 46.746895 0 0 1 -111.34898 -90.242176 A 26.715506 46.746895 0 0 1 -127.84085 -47.053179 z "
       transform="matrix(-0.83632997,-0.5482264,0.61612208,-0.78765068,0,0)" />
  </g>
  <g
     inkscape:groupmode="layer"
     id="layer6"
     inkscape:label="Layer 3">
    <ellipse
       style="fill:url(#linearGradient29);fill-opacity:1;stroke-width:1.016;stroke:none;stroke-opacity:1;stroke-dasharray:none"
       id="path7"
       cx="128.00926"
       cy="129.16666"
       rx="40.046295"
       ry="36.574074"
       inkscape:label="path7" />
  </g>
</svg>
