<?xml version="1.0" encoding="UTF-8" standalone="no"?>
<!-- Created with Inkscape (http://www.inkscape.org/) -->

<svg
   width="200mm"
   height="200mm"
   viewBox="0 0 200 200"
   version="1.1"
   id="svg1"
   inkscape:export-filename="selected-circle.png"
   inkscape:export-xdpi="96"
   inkscape:export-ydpi="96"
   inkscape:version="1.3.2 (091e20e, 2023-11-25)"
   sodipodi:docname="transform-circle.svg"
   xmlns:inkscape="http://www.inkscape.org/namespaces/inkscape"
   xmlns:sodipodi="http://sodipodi.sourceforge.net/DTD/sodipodi-0.dtd"
   xmlns="http://www.w3.org/2000/svg"
   xmlns:svg="http://www.w3.org/2000/svg">
  <sodipodi:namedview
     id="namedview1"
     pagecolor="#ffffff"
     bordercolor="#000000"
     borderopacity="0.25"
     inkscape:showpageshadow="2"
     inkscape:pageopacity="0.0"
     inkscape:pagecheckerboard="0"
     inkscape:deskcolor="#d1d1d1"
     inkscape:document-units="mm"
     inkscape:zoom="0.51266154"
     inkscape:cx="449.61437"
     inkscape:cy="520.81145"
     inkscape:window-width="1440"
     inkscape:window-height="847"
     inkscape:window-x="0"
     inkscape:window-y="25"
     inkscape:window-maximized="1"
     inkscape:current-layer="layer1" />
  <defs
     id="defs1" />
  <g
     inkscape:label="Layer 1"
     inkscape:groupmode="layer"
     id="layer1"
     transform="translate(-6.9703369,-40.949142)">
    <path
       id="path1"
       style="fill:#000000;stroke-width:0.268817"
       d="M 106.97043 40.949142 A 100 100 0 0 0 6.9703369 140.94924 A 100 100 0 0 0 106.97043 240.94934 A 100 100 0 0 0 206.97053 140.94924 A 100 100 0 0 0 106.97043 40.949142 z M 106.97043 45.949354 A 95 95 0 0 1 201.97032 140.94924 A 95 95 0 0 1 106.97043 235.94913 A 95 95 0 0 1 11.970548 140.94924 A 95 95 0 0 1 106.97043 45.949354 z " />
    <path
       id="path1-9"
       style="fill:#000000;stroke-width:0.268817"
       d="M 106.97043,40.949142 A 100,100 0 0 0 6.9703369,140.94924 100,100 0 0 0 106.97043,240.94934 100,100 0 0 0 206.97053,140.94924 100,100 0 0 0 106.97043,40.949142 Z m 0,5.000212 a 95,95 0 0 1 94.99989,94.999886 95,95 0 0 1 -94.99989,94.99989 95,95 0 0 1 -94.999882,-94.99989 95,95 0 0 1 94.999882,-94.999886 z" />
    <path
       id="path3"
       style="fill:#ffffff;stroke-width:0.411779"
       d="M 106.97043 40.949142 A 100 100 0 0 0 6.9703369 140.94924 A 100 100 0 0 0 106.97043 240.94934 A 100 100 0 0 0 206.97053 140.94924 A 100 100 0 0 0 106.97043 40.949142 z M 106.97043 90.949191 A 50 50 0 0 1 156.97048 140.94924 A 50 50 0 0 1 106.97043 190.94929 A 50 50 0 0 1 56.970386 140.94924 A 50 50 0 0 1 106.97043 90.949191 z " />
  </g>
</svg>
